<svg xmlns="http://www.w3.org/2000/svg" viewBox="0 0 512 512" width="512" height="512"><rect width="512" height="512" fill="#F1ECE0"/><path d="M 303.706 96.393 A 184.320 184.320 0 0 1 371.611 130.878" fill="none" stroke="#615380" stroke-width="55.296" stroke-linecap="round"/><path d="M 381.344 139.292 A 184.320 184.320 0 0 1 411.885 176.076" fill="none" stroke="#C19F45" stroke-width="55.296" stroke-linecap="round"/><path d="M 418.366 187.190 A 184.320 184.320 0 0 1 435.242 317.400" fill="none" stroke="#376043" stroke-width="55.296" stroke-linecap="round"/><path d="M 431.808 329.799 A 184.320 184.320 0 0 1 358.454 427.654" fill="none" stroke="#615380" stroke-width="55.296" stroke-linecap="round"/><path d="M 347.516 434.428 A 184.320 184.320 0 0 1 199.277 449.807" fill="none" stroke="#C19F45" stroke-width="55.296" stroke-linecap="round"/><path d="M 187.182 445.423 A 184.320 184.320 0 0 1 208.294 96.393" fill="none" stroke="#376043" stroke-width="55.296" stroke-linecap="round"/><g stroke="#C19F45" stroke-width="43.131" stroke-linecap="round"><line x1="256.000" y1="32.973" x2="256.000" y2="147.251"/><line x1="220.574" y1="74.113" x2="291.426" y2="74.113"/></g></svg>