<svg xmlns="http://www.w3.org/2000/svg" viewBox="0 0 1200 630" width="1200" height="630"><rect width="1200" height="630" fill="#F1ECE0"/><g opacity="0.10"><path d="M 1227.998 -13.415 A 340.000 340.000 0 0 1 1353.259 50.197" fill="none" stroke="#615380" stroke-width="96.000" stroke-linecap="round"/><path d="M 1371.211 65.718 A 340.000 340.000 0 0 1 1427.547 133.571" fill="none" stroke="#C19F45" stroke-width="96.000" stroke-linecap="round"/><path d="M 1439.503 154.071 A 340.000 340.000 0 0 1 1470.632 394.260" fill="none" stroke="#376043" stroke-width="96.000" stroke-linecap="round"/><path d="M 1464.298 417.131 A 340.000 340.000 0 0 1 1328.989 597.636" fill="none" stroke="#615380" stroke-width="96.000" stroke-linecap="round"/><path d="M 1308.813 610.131 A 340.000 340.000 0 0 1 1035.368 638.500" fill="none" stroke="#C19F45" stroke-width="96.000" stroke-linecap="round"/><path d="M 1013.057 630.413 A 340.000 340.000 0 0 1 1052.002 -13.415" fill="none" stroke="#376043" stroke-width="96.000" stroke-linecap="round"/></g><g fill="#22211D" opacity="0.55" transform="translate(90,345.5361328125)"><path transform="translate(0.00,0) scale(0.073242,-0.073242)" d="M821 674Q821 740 807.5 788.0Q794 836 768.5 867.5Q743 899 707.0 914.5Q671 930 627 930Q597 930 560.0 918.0Q523 906 483.5 885.5Q444 865 404.5 838.0Q365 811 330 780Q328 748 328.0 711.5Q328 675 328 633V391Q328 306 330.0 242.5Q332 179 336.0 133.0Q340 87 345.0 56.0Q350 25 356 4V0H125V4Q131 25 136.5 56.0Q142 87 145.5 133.0Q149 179 151.5 242.5Q154 306 154 391V633Q154 718 151.5 781.5Q149 845 145.5 891.0Q142 937 136.5 968.0Q131 999 125 1020V1024H356V1020Q348 997 343.5 961.5Q339 926 334 872Q374 904 420.0 935.0Q466 966 514.5 990.0Q563 1014 612.0 1029.0Q661 1044 709 1044Q766 1044 810.0 1029.0Q854 1014 887.0 988.0Q920 962 942.5 927.0Q965 892 977 852Q1018 887 1066.5 921.5Q1115 956 1166.5 983.0Q1218 1010 1271.5 1027.0Q1325 1044 1376 1044Q1454 1044 1508.5 1017.0Q1563 990 1597.5 946.0Q1632 902 1647.5 845.5Q1663 789 1663 731V391Q1663 306 1665.0 242.5Q1667 179 1671.0 133.0Q1675 87 1680.5 56.0Q1686 25 1692 4V0H1460V4Q1466 25 1471.5 56.0Q1477 87 1481.0 133.0Q1485 179 1487.0 242.5Q1489 306 1489 391V674Q1489 806 1436.0 868.0Q1383 930 1294 930Q1263 930 1225.5 918.0Q1188 906 1148.0 885.0Q1108 864 1068.0 836.5Q1028 809 993 778Q995 766 995.0 754.0Q995 742 995 731V391Q995 306 997.5 242.5Q1000 179 1003.5 133.0Q1007 87 1012.5 56.0Q1018 25 1024 4V0H793V4Q799 25 804.0 56.0Q809 87 813.0 133.0Q817 179 819.0 242.5Q821 306 821 391Z"/><path transform="translate(132.57,0) scale(0.073242,-0.073242)" d="M475 12 123 782Q104 826 82.0 866.5Q60 907 40.5 939.0Q21 971 6.0 992.5Q-9 1014 -14 1020V1024H248V1020Q246 1015 245.0 1005.0Q244 995 244 987Q244 956 253.5 918.5Q263 881 289 825L565 225L817 817Q833 854 849.5 898.0Q866 942 866 987Q866 1000 864.0 1008.5Q862 1017 860 1020V1024H1040V1020Q1022 1001 994.5 952.5Q967 904 936 831L459 -305Q443 -342 426.5 -386.0Q410 -430 410 -475Q410 -488 412.0 -496.5Q414 -505 416 -508V-512H229V-508Q248 -489 275.5 -441.5Q303 -394 334 -322Z"/></g><g fill="#22211D" transform="translate(304.46484375,345.5361328125)"><path transform="translate(0.00,0) scale(0.073242,-0.073242)" d="M797 1458Q964 1458 1105.5 1403.5Q1247 1349 1350.0 1250.5Q1453 1152 1511.0 1014.0Q1569 876 1569 709Q1569 614 1547.0 522.0Q1525 430 1482.5 348.0Q1440 266 1378.0 196.5Q1316 127 1236.5 76.5Q1157 26 1061.0 -2.5Q965 -31 854 -31Q687 -31 545.5 22.5Q404 76 301.0 174.0Q198 272 140.0 409.5Q82 547 82 715Q82 810 104.0 902.0Q126 994 168.5 1077.0Q211 1160 272.5 1229.5Q334 1299 413.5 1350.0Q493 1401 589.5 1429.5Q686 1458 797 1458ZM854 59Q965 59 1057.0 99.0Q1149 139 1215.5 215.0Q1282 291 1319.0 400.5Q1356 510 1356 649Q1356 803 1320.5 934.5Q1285 1066 1215.0 1162.5Q1145 1259 1040.5 1313.5Q936 1368 797 1368Q686 1368 594.0 1328.5Q502 1289 435.5 1214.0Q369 1139 332.0 1030.0Q295 921 295 782Q295 629 330.0 496.5Q365 364 435.0 267.0Q505 170 610.0 114.5Q715 59 854 59Z"/><path transform="translate(120.92,0) scale(0.073242,-0.073242)" d="M354 391Q354 306 356.5 242.5Q359 179 362.5 133.0Q366 87 371.5 56.0Q377 25 383 4V0H143V4Q149 25 154.5 56.0Q160 87 163.5 133.0Q167 179 169.5 242.0Q172 305 172 391V1042Q172 1127 169.5 1190.5Q167 1254 163.5 1300.0Q160 1346 154.5 1377.5Q149 1409 143 1430V1434L185 1430Q204 1428 227.5 1427.5Q251 1427 276 1427Q315 1427 381.5 1436.5Q448 1446 551 1446Q647 1446 728.5 1420.0Q810 1394 870.0 1344.0Q930 1294 963.5 1221.5Q997 1149 997 1057Q997 985 978.5 923.5Q960 862 926.5 812.0Q893 762 846.0 723.5Q799 685 741 659L1092 166Q1118 129 1140.5 102.0Q1163 75 1183.5 55.5Q1204 36 1223.0 23.5Q1242 11 1262 4V0H973Q970 19 953.5 50.5Q937 82 915 113L561 612Q538 610 515.0 608.5Q492 607 468 607Q440 607 411.5 609.0Q383 611 354 616ZM354 694Q381 688 409.0 685.5Q437 683 463 683Q538 683 600.0 705.5Q662 728 705.5 774.0Q749 820 773.0 888.5Q797 957 797 1049Q797 1124 780.0 1185.0Q763 1246 729.5 1288.5Q696 1331 645.0 1354.5Q594 1378 526 1378Q457 1378 416.0 1371.0Q375 1364 354 1356Z"/><path transform="translate(209.55,0) scale(0.073242,-0.073242)" d="M362 1348Q360 1236 358 1131Q357 1086 356.5 1039.0Q356 992 355.5 946.5Q355 901 354.5 859.5Q354 818 354 786Q354 719 355.0 624.0Q356 529 357.5 429.0Q359 329 362.0 237.0Q365 145 369 84Q383 82 406.5 79.5Q430 77 456.0 75.5Q482 74 507.0 73.0Q532 72 549 72Q619 72 692.5 81.5Q766 91 834.5 117.0Q903 143 963.5 188.5Q1024 234 1069.5 306.0Q1115 378 1141.0 479.5Q1167 581 1167 719Q1167 872 1130.0 991.5Q1093 1111 1021.5 1193.0Q950 1275 844.5 1317.5Q739 1360 602 1360Q575 1360 541.0 1358.5Q507 1357 473.5 1355.5Q440 1354 410.5 1351.5Q381 1349 362 1348ZM143 1438Q166 1437 186 1436Q203 1435 221.0 1434.5Q239 1434 250 1434Q269 1434 313.5 1436.0Q358 1438 415.0 1440.0Q472 1442 533.5 1444.0Q595 1446 649 1446Q794 1446 925.0 1410.0Q1056 1374 1155.0 1292.0Q1254 1210 1312.0 1077.0Q1370 944 1370 750Q1370 611 1339.5 500.0Q1309 389 1254.0 304.0Q1199 219 1122.5 158.5Q1046 98 953.5 59.0Q861 20 756.0 2.0Q651 -16 539 -16Q499 -16 442.5 -13.5Q386 -11 329.0 -8.0Q272 -5 221.5 -2.5Q171 0 143 0V4Q149 25 154.5 56.0Q160 87 164.0 133.0Q168 179 170.0 242.5Q172 306 172 391V1042Q172 1127 170.0 1191.5Q168 1256 164.0 1302.5Q160 1349 154.5 1381.0Q149 1413 143 1434Z"/></g><path d="M 710.553 241.497 A 51.257 51.257 0 0 1 729.437 251.087" fill="none" stroke="#615380" stroke-width="15.377" stroke-linecap="round"/><path d="M 732.143 253.427 A 51.257 51.257 0 0 1 740.636 263.656" fill="none" stroke="#C19F45" stroke-width="15.377" stroke-linecap="round"/><path d="M 742.438 266.746 A 51.257 51.257 0 0 1 747.131 302.956" fill="none" stroke="#376043" stroke-width="15.377" stroke-linecap="round"/><path d="M 746.176 306.404 A 51.257 51.257 0 0 1 725.778 333.616" fill="none" stroke="#615380" stroke-width="15.377" stroke-linecap="round"/><path d="M 722.736 335.500 A 51.257 51.257 0 0 1 681.513 339.777" fill="none" stroke="#C19F45" stroke-width="15.377" stroke-linecap="round"/><path d="M 678.149 338.558 A 51.257 51.257 0 0 1 684.020 241.497" fill="none" stroke="#376043" stroke-width="15.377" stroke-linecap="round"/><g stroke="#C19F45" stroke-width="11.994" stroke-linecap="round"><line x1="697.286" y1="223.861" x2="697.286" y2="255.640"/><line x1="687.435" y1="235.301" x2="707.138" y2="235.301"/></g><g fill="#807C72" transform="translate(90,437.5361328125)"><path transform="translate(0.00,0) scale(0.019531,-0.019531)" d="M520 1346Q402 1346 307.0 1335.5Q212 1325 143 1313Q63 1298 0 1280L29 1442Q41 1441 65.0 1440.0Q89 1439 118.5 1438.0Q148 1437 180.5 1436.5Q213 1436 242.0 1435.5Q271 1435 293.5 1434.5Q316 1434 326 1434H897Q907 1434 929.5 1434.5Q952 1435 981.0 1435.5Q1010 1436 1042.5 1436.5Q1075 1437 1104.5 1438.0Q1134 1439 1158.0 1440.0Q1182 1441 1194 1442L1223 1280Q1159 1298 1079 1313Q1010 1325 915.0 1335.5Q820 1346 702 1346V391Q702 306 704.5 242.5Q707 179 710.5 133.0Q714 87 719.5 56.0Q725 25 731 4V0H492V4Q498 25 503.0 56.0Q508 87 512.0 133.0Q516 179 518.0 242.5Q520 306 520 391Z"/><path transform="translate(23.89,0) scale(0.019531,-0.019531)" d="M842 674Q842 806 789.0 868.0Q736 930 647 930Q614 930 573.5 916.5Q533 903 490.5 880.0Q448 857 406.0 826.5Q364 796 328 762V391Q328 306 330.0 242.5Q332 179 336.0 133.0Q340 87 345.0 56.0Q350 25 356 4V0H125V4Q131 25 136.5 56.0Q142 87 145.5 133.0Q149 179 151.5 242.5Q154 306 154 391V1104Q154 1189 151.5 1252.5Q149 1316 145.5 1362.0Q142 1408 136.5 1439.0Q131 1470 125 1491V1495H356V1491Q350 1470 345.0 1439.0Q340 1408 336.0 1362.0Q332 1316 330.0 1252.5Q328 1189 328 1104V848Q368 884 416.5 919.0Q465 954 517.0 982.0Q569 1010 623.0 1027.0Q677 1044 729 1044Q807 1044 861.5 1017.0Q916 990 950.5 946.0Q985 902 1000.5 845.5Q1016 789 1016 731V391Q1016 306 1018.0 242.5Q1020 179 1024.0 133.0Q1028 87 1033.0 56.0Q1038 25 1044 4V0H813V4Q819 25 824.5 56.0Q830 87 833.5 133.0Q837 179 839.5 242.5Q842 306 842 391Z"/><path transform="translate(46.60,0) scale(0.019531,-0.019531)" d="M602 -18Q491 -18 394.0 17.0Q297 52 225.0 119.5Q153 187 111.5 286.5Q70 386 70 514Q70 627 108.0 723.5Q146 820 213.0 891.0Q280 962 369.5 1002.0Q459 1042 563 1042Q666 1042 754.0 1006.5Q842 971 906.5 903.5Q971 836 1008.5 736.5Q1046 637 1049 510Q936 512 823.0 513.0Q710 514 588 514Q501 514 418.5 513.0Q336 512 270 510Q276 406 302.5 322.0Q329 238 375.5 178.5Q422 119 488.5 87.0Q555 55 639 55Q697 55 748.5 68.5Q800 82 842.0 106.0Q884 130 917.0 162.5Q950 195 973 233L985 227L911 49Q857 21 782.0 1.5Q707 -18 602 -18ZM469 592Q569 592 669.5 592.5Q770 593 852 596Q843 683 818.0 752.0Q793 821 754.0 869.0Q715 917 662.0 943.0Q609 969 545 969Q487 969 438.5 943.5Q390 918 354.0 870.0Q318 822 296.0 752.5Q274 683 270 594Q315 592 365.0 592.0Q415 592 469 592Z"/><path transform="translate(80.27,0) scale(0.019531,-0.019531)" d="M160 1104Q160 1189 157.5 1252.5Q155 1316 151.5 1362.0Q148 1408 142.5 1439.0Q137 1470 131 1491V1495H362V1491Q356 1470 351.0 1439.0Q346 1408 342.0 1362.0Q338 1316 336.0 1252.5Q334 1189 334 1104V391Q334 306 336.0 242.5Q338 179 342.0 133.0Q346 87 351.0 56.0Q356 25 362 4V0H131V4Q137 25 142.5 56.0Q148 87 151.5 133.0Q155 179 157.5 242.5Q160 306 160 391Z"/><path transform="translate(89.92,0) scale(0.019531,-0.019531)" d="M160 633Q160 718 157.5 781.5Q155 845 151.5 891.0Q148 937 142.5 968.0Q137 999 131 1020V1024H362V1020Q356 999 351.0 968.0Q346 937 342.0 891.0Q338 845 336.0 781.5Q334 718 334 633V391Q334 306 336.0 242.5Q338 179 342.0 133.0Q346 87 351.0 56.0Q356 25 362 4V0H131V4Q137 25 142.5 56.0Q148 87 151.5 133.0Q155 179 157.5 242.5Q160 306 160 391ZM139 1327Q139 1349 147.5 1368.5Q156 1388 170.0 1402.5Q184 1417 203.5 1425.5Q223 1434 246 1434Q269 1434 288.5 1425.5Q308 1417 322.5 1402.5Q337 1388 345.5 1368.5Q354 1349 354 1327Q354 1281 323.0 1250.0Q292 1219 246 1219Q223 1219 203.5 1227.5Q184 1236 170.0 1250.5Q156 1265 147.5 1284.5Q139 1304 139 1327Z"/><path transform="translate(99.57,0) scale(0.019531,-0.019531)" d="M516 59Q546 59 575.5 70.0Q605 81 632.5 100.0Q660 119 685.5 143.5Q711 168 733 195L743 190L678 29Q666 23 648.5 14.5Q631 6 606.5 -1.5Q582 -9 549.0 -14.5Q516 -20 471 -20Q337 -20 262.5 52.5Q188 125 188 279V946L20 940V1028Q51 1026 94.0 1025.0Q137 1024 188 1024Q187 1095 184.5 1149.5Q182 1204 178.5 1244.5Q175 1285 170.0 1313.0Q165 1341 160 1360V1364H391V1360Q385 1341 380.0 1313.0Q375 1285 371.5 1245.0Q368 1205 365.5 1150.5Q363 1096 362 1024Q425 1025 485.5 1026.5Q546 1028 595.5 1030.5Q645 1033 679.5 1035.5Q714 1038 725 1040L707 938Q656 939 600 941Q552 943 490.0 944.0Q428 945 362 946V258Q362 196 375.5 157.5Q389 119 410.5 97.0Q432 75 459.5 67.0Q487 59 516 59Z"/><path transform="translate(114.92,0) scale(0.019531,-0.019531)" d="M322 350Q322 218 374.5 156.0Q427 94 516 94Q548 94 588.0 107.5Q628 121 670.5 143.5Q713 166 755.5 196.0Q798 226 834 260Q836 289 836.0 321.5Q836 354 836 391V633Q836 718 833.5 781.5Q831 845 827.5 891.0Q824 937 818.5 968.0Q813 999 807 1020V1024H1038V1020Q1032 999 1027.0 968.0Q1022 937 1018.0 891.0Q1014 845 1012.0 781.5Q1010 718 1010 633V391Q1010 306 1012.0 242.5Q1014 179 1018.0 133.0Q1022 87 1027.0 56.0Q1032 25 1038 4V0H807V4Q813 29 819.5 68.0Q826 107 829 170Q788 135 740.5 101.0Q693 67 641.5 40.0Q590 13 537.5 -3.5Q485 -20 434 -20Q356 -20 301.5 7.0Q247 34 212.5 78.0Q178 122 162.5 178.0Q147 234 147 293V633Q147 718 145.0 781.5Q143 845 139.0 891.0Q135 937 130.0 968.0Q125 999 119 1020V1024H350V1020Q344 999 339.0 968.0Q334 937 330.0 891.0Q326 845 324.0 781.5Q322 718 322 633Z"/><path transform="translate(137.64,0) scale(0.019531,-0.019531)" d="M154 633Q154 718 151.5 781.5Q149 845 145.5 891.0Q142 937 136.5 968.0Q131 999 125 1020V1024H356V1020Q348 997 342.5 964.0Q337 931 334 879Q371 910 411.0 940.0Q451 970 493.0 993.0Q535 1016 578.5 1030.0Q622 1044 666 1044Q693 1044 713.0 1041.5Q733 1039 749.0 1034.5Q765 1030 778.0 1024.5Q791 1019 803 1014L754 823L737 827Q725 871 692.0 897.5Q659 924 602 924Q571 924 537.0 913.0Q503 902 468.0 882.5Q433 863 398.0 837.5Q363 812 330 784Q328 755 328.0 721.0Q328 687 328 649V391Q328 306 330.0 242.5Q332 179 336.0 133.0Q340 87 345.0 56.0Q350 25 356 4V0H125V4Q131 25 136.5 56.0Q142 87 145.5 133.0Q149 179 151.5 242.5Q154 306 154 391Z"/><path transform="translate(153.32,0) scale(0.019531,-0.019531)" d="M541 -457Q622 -457 678.0 -439.5Q734 -422 770.5 -391.0Q807 -360 826.5 -316.5Q846 -273 855.5 -221.0Q865 -169 866.5 -110.0Q868 -51 868 12V45Q819 19 750.0 0.5Q681 -18 594 -18Q475 -18 378.0 19.0Q281 56 212.5 125.0Q144 194 107.0 292.5Q70 391 70 514Q70 627 106.5 724.0Q143 821 209.5 892.0Q276 963 368.5 1003.5Q461 1044 573 1044Q621 1044 661.0 1036.0Q701 1028 735.5 1014.5Q770 1001 800.5 983.5Q831 966 860 946L850 1020V1024H1071V1020Q1065 999 1059.5 968.0Q1054 937 1050.5 891.0Q1047 845 1044.5 781.5Q1042 718 1042 633V-47Q1042 -139 1017.5 -226.5Q993 -314 934.5 -382.0Q876 -450 780.0 -491.0Q684 -532 541 -532Q491 -532 440.0 -522.5Q389 -513 343.0 -499.5Q297 -486 260.0 -470.0Q223 -454 201 -442L170 -250L186 -246Q210 -298 251.5 -337.5Q293 -377 342.0 -403.5Q391 -430 443.5 -443.5Q496 -457 541 -457ZM639 55Q711 55 769.5 79.0Q828 103 868 135V633Q868 689 867.0 734.5Q866 780 866 817Q842 854 810.5 882.5Q779 911 743.5 930.5Q708 950 671.0 960.5Q634 971 598 971Q522 971 461.0 943.0Q400 915 357.5 862.5Q315 810 292.5 734.5Q270 659 270 563Q270 455 294.0 362.0Q318 269 364.5 200.5Q411 132 480.0 93.5Q549 55 639 55Z"/><path transform="translate(176.68,0) scale(0.019531,-0.019531)" d="M160 633Q160 718 157.5 781.5Q155 845 151.5 891.0Q148 937 142.5 968.0Q137 999 131 1020V1024H362V1020Q356 999 351.0 968.0Q346 937 342.0 891.0Q338 845 336.0 781.5Q334 718 334 633V391Q334 306 336.0 242.5Q338 179 342.0 133.0Q346 87 351.0 56.0Q356 25 362 4V0H131V4Q137 25 142.5 56.0Q148 87 151.5 133.0Q155 179 157.5 242.5Q160 306 160 391ZM139 1327Q139 1349 147.5 1368.5Q156 1388 170.0 1402.5Q184 1417 203.5 1425.5Q223 1434 246 1434Q269 1434 288.5 1425.5Q308 1417 322.5 1402.5Q337 1388 345.5 1368.5Q354 1349 354 1327Q354 1281 323.0 1250.0Q292 1219 246 1219Q223 1219 203.5 1227.5Q184 1236 170.0 1250.5Q156 1265 147.5 1284.5Q139 1304 139 1327Z"/><path transform="translate(186.33,0) scale(0.019531,-0.019531)" d="M985 213 911 35Q884 23 849.0 13.0Q814 3 776.5 -4.0Q739 -11 701.0 -14.5Q663 -18 629 -18Q508 -18 405.5 17.5Q303 53 228.5 121.0Q154 189 112.0 288.0Q70 387 70 514Q70 627 113.5 723.5Q157 820 234.5 891.0Q312 962 417.0 1002.0Q522 1042 645 1042Q701 1042 765.0 1032.5Q829 1023 879 1008L950 838L938 831Q913 862 878.5 887.5Q844 913 802.5 931.0Q761 949 715.0 959.0Q669 969 621 969Q543 969 479.0 941.5Q415 914 369.0 862.0Q323 810 297.5 734.5Q272 659 272 563Q272 455 296.5 362.0Q321 269 369.5 200.5Q418 132 491.5 93.5Q565 55 664 55Q710 55 755.5 66.5Q801 78 841.5 99.5Q882 121 916.0 151.0Q950 181 973 219Z"/><path transform="translate(206.52,0) scale(0.019531,-0.019531)" d="M74 295Q74 374 106.5 432.0Q139 490 193.0 531.0Q247 572 316.0 597.5Q385 623 459.0 637.5Q533 652 605.0 657.5Q677 663 737 664V715Q737 781 720.0 829.0Q703 877 672.0 908.5Q641 940 597.5 955.5Q554 971 502 971Q466 971 431.0 965.0Q396 959 358.5 945.0Q321 931 279.5 907.0Q238 883 190 846L180 852L248 993Q281 1008 313.0 1017.5Q345 1027 378.0 1033.0Q411 1039 445.5 1041.5Q480 1044 518 1044Q623 1044 697.5 1018.5Q772 993 819.5 948.5Q867 904 889.0 844.5Q911 785 911 717V391Q911 306 913.5 242.5Q916 179 919.5 133.0Q923 87 928.5 56.0Q934 25 940 4V0H719V4Q724 20 726.5 40.0Q729 60 731 88Q710 70 681.5 51.0Q653 32 616.5 16.5Q580 1 535.5 -8.5Q491 -18 438 -18Q264 -18 169.0 63.5Q74 145 74 295ZM737 586Q646 585 562.0 575.5Q478 566 413.5 536.0Q349 506 310.5 450.5Q272 395 272 303Q272 185 331.0 123.0Q390 61 494 61Q542 61 581.5 74.5Q621 88 651.5 108.5Q682 129 703.0 153.5Q724 178 735 201Q737 239 737.0 285.5Q737 332 737 391Z"/><path transform="translate(227.21,0) scale(0.019531,-0.019531)" d="M160 1104Q160 1189 157.5 1252.5Q155 1316 151.5 1362.0Q148 1408 142.5 1439.0Q137 1470 131 1491V1495H362V1491Q356 1470 351.0 1439.0Q346 1408 342.0 1362.0Q338 1316 336.0 1252.5Q334 1189 334 1104V391Q334 306 336.0 242.5Q338 179 342.0 133.0Q346 87 351.0 56.0Q356 25 362 4V0H131V4Q137 25 142.5 56.0Q148 87 151.5 133.0Q155 179 157.5 242.5Q160 306 160 391Z"/><path transform="translate(248.85,0) scale(0.019531,-0.019531)" d="M985 213 911 35Q884 23 849.0 13.0Q814 3 776.5 -4.0Q739 -11 701.0 -14.5Q663 -18 629 -18Q508 -18 405.5 17.5Q303 53 228.5 121.0Q154 189 112.0 288.0Q70 387 70 514Q70 627 113.5 723.5Q157 820 234.5 891.0Q312 962 417.0 1002.0Q522 1042 645 1042Q701 1042 765.0 1032.5Q829 1023 879 1008L950 838L938 831Q913 862 878.5 887.5Q844 913 802.5 931.0Q761 949 715.0 959.0Q669 969 621 969Q543 969 479.0 941.5Q415 914 369.0 862.0Q323 810 297.5 734.5Q272 659 272 563Q272 455 296.5 362.0Q321 269 369.5 200.5Q418 132 491.5 93.5Q565 55 664 55Q710 55 755.5 66.5Q801 78 841.5 99.5Q882 121 916.0 151.0Q950 181 973 219Z"/><path transform="translate(269.04,0) scale(0.019531,-0.019531)" d="M74 295Q74 374 106.5 432.0Q139 490 193.0 531.0Q247 572 316.0 597.5Q385 623 459.0 637.5Q533 652 605.0 657.5Q677 663 737 664V715Q737 781 720.0 829.0Q703 877 672.0 908.5Q641 940 597.5 955.5Q554 971 502 971Q466 971 431.0 965.0Q396 959 358.5 945.0Q321 931 279.5 907.0Q238 883 190 846L180 852L248 993Q281 1008 313.0 1017.5Q345 1027 378.0 1033.0Q411 1039 445.5 1041.5Q480 1044 518 1044Q623 1044 697.5 1018.5Q772 993 819.5 948.5Q867 904 889.0 844.5Q911 785 911 717V391Q911 306 913.5 242.5Q916 179 919.5 133.0Q923 87 928.5 56.0Q934 25 940 4V0H719V4Q724 20 726.5 40.0Q729 60 731 88Q710 70 681.5 51.0Q653 32 616.5 16.5Q580 1 535.5 -8.5Q491 -18 438 -18Q264 -18 169.0 63.5Q74 145 74 295ZM737 586Q646 585 562.0 575.5Q478 566 413.5 536.0Q349 506 310.5 450.5Q272 395 272 303Q272 185 331.0 123.0Q390 61 494 61Q542 61 581.5 74.5Q621 88 651.5 108.5Q682 129 703.0 153.5Q724 178 735 201Q737 239 737.0 285.5Q737 332 737 391Z"/><path transform="translate(289.73,0) scale(0.019531,-0.019531)" d="M160 1104Q160 1189 157.5 1252.5Q155 1316 151.5 1362.0Q148 1408 142.5 1439.0Q137 1470 131 1491V1495H362V1491Q356 1470 351.0 1439.0Q346 1408 342.0 1362.0Q338 1316 336.0 1252.5Q334 1189 334 1104V391Q334 306 336.0 242.5Q338 179 342.0 133.0Q346 87 351.0 56.0Q356 25 362 4V0H131V4Q137 25 142.5 56.0Q148 87 151.5 133.0Q155 179 157.5 242.5Q160 306 160 391Z"/><path transform="translate(299.38,0) scale(0.019531,-0.019531)" d="M602 -18Q491 -18 394.0 17.0Q297 52 225.0 119.5Q153 187 111.5 286.5Q70 386 70 514Q70 627 108.0 723.5Q146 820 213.0 891.0Q280 962 369.5 1002.0Q459 1042 563 1042Q666 1042 754.0 1006.5Q842 971 906.5 903.5Q971 836 1008.5 736.5Q1046 637 1049 510Q936 512 823.0 513.0Q710 514 588 514Q501 514 418.5 513.0Q336 512 270 510Q276 406 302.5 322.0Q329 238 375.5 178.5Q422 119 488.5 87.0Q555 55 639 55Q697 55 748.5 68.5Q800 82 842.0 106.0Q884 130 917.0 162.5Q950 195 973 233L985 227L911 49Q857 21 782.0 1.5Q707 -18 602 -18ZM469 592Q569 592 669.5 592.5Q770 593 852 596Q843 683 818.0 752.0Q793 821 754.0 869.0Q715 917 662.0 943.0Q609 969 545 969Q487 969 438.5 943.5Q390 918 354.0 870.0Q318 822 296.0 752.5Q274 683 270 594Q315 592 365.0 592.0Q415 592 469 592Z"/><path transform="translate(321.05,0) scale(0.019531,-0.019531)" d="M842 674Q842 806 789.0 868.0Q736 930 647 930Q615 930 575.0 916.5Q535 903 493.0 880.5Q451 858 409.0 828.0Q367 798 330 764L328 633V391Q328 306 330.0 242.5Q332 179 336.0 133.0Q340 87 345.0 56.0Q350 25 356 4V0H125V4Q131 25 136.5 56.0Q142 87 145.5 133.0Q149 179 151.5 242.5Q154 306 154 391V633Q154 718 151.5 781.5Q149 845 145.5 891.0Q142 937 136.5 968.0Q131 999 125 1020V1024H356V1020Q348 995 343.5 956.5Q339 918 334 856Q375 890 422.5 924.0Q470 958 521.0 984.5Q572 1011 625.0 1027.5Q678 1044 729 1044Q807 1044 861.5 1017.0Q916 990 950.5 946.0Q985 902 1000.5 845.5Q1016 789 1016 731V391Q1016 306 1018.0 242.5Q1020 179 1024.0 133.0Q1028 87 1033.0 56.0Q1038 25 1044 4V0H813V4Q819 25 824.5 56.0Q830 87 833.5 133.0Q837 179 839.5 242.5Q842 306 842 391Z"/><path transform="translate(343.77,0) scale(0.019531,-0.019531)" d="M610 1042Q651 1042 692.0 1035.0Q733 1028 772.0 1015.0Q811 1002 846.0 983.0Q881 964 909 940V1104Q909 1189 907.0 1252.5Q905 1316 901.0 1362.0Q897 1408 892.0 1439.0Q887 1470 881 1491V1495H1112V1491Q1106 1470 1100.5 1439.0Q1095 1408 1091.5 1362.0Q1088 1316 1085.5 1252.5Q1083 1189 1083 1104V391Q1083 306 1085.5 242.5Q1088 179 1091.5 133.0Q1095 87 1100.5 56.0Q1106 25 1112 4V0H891V4Q894 12 896.0 27.5Q898 43 901 66Q850 34 773.0 8.0Q696 -18 594 -18Q475 -18 378.0 19.0Q281 56 212.5 125.0Q144 194 107.0 292.5Q70 391 70 514Q70 627 110.0 723.5Q150 820 222.0 891.0Q294 962 393.0 1002.0Q492 1042 610 1042ZM909 764Q869 869 794.5 919.0Q720 969 627 969Q549 969 483.0 941.5Q417 914 370.0 862.0Q323 810 296.5 734.5Q270 659 270 563Q270 455 294.0 362.0Q318 269 364.5 200.5Q411 132 480.0 93.5Q549 55 639 55Q686 55 727.0 66.0Q768 77 802.0 94.0Q836 111 862.0 131.5Q888 152 905 172Q907 215 908.0 270.0Q909 325 909 391Z"/><path transform="translate(367.93,0) scale(0.019531,-0.019531)" d="M74 295Q74 374 106.5 432.0Q139 490 193.0 531.0Q247 572 316.0 597.5Q385 623 459.0 637.5Q533 652 605.0 657.5Q677 663 737 664V715Q737 781 720.0 829.0Q703 877 672.0 908.5Q641 940 597.5 955.5Q554 971 502 971Q466 971 431.0 965.0Q396 959 358.5 945.0Q321 931 279.5 907.0Q238 883 190 846L180 852L248 993Q281 1008 313.0 1017.5Q345 1027 378.0 1033.0Q411 1039 445.5 1041.5Q480 1044 518 1044Q623 1044 697.5 1018.5Q772 993 819.5 948.5Q867 904 889.0 844.5Q911 785 911 717V391Q911 306 913.5 242.5Q916 179 919.5 133.0Q923 87 928.5 56.0Q934 25 940 4V0H719V4Q724 20 726.5 40.0Q729 60 731 88Q710 70 681.5 51.0Q653 32 616.5 16.5Q580 1 535.5 -8.5Q491 -18 438 -18Q264 -18 169.0 63.5Q74 145 74 295ZM737 586Q646 585 562.0 575.5Q478 566 413.5 536.0Q349 506 310.5 450.5Q272 395 272 303Q272 185 331.0 123.0Q390 61 494 61Q542 61 581.5 74.5Q621 88 651.5 108.5Q682 129 703.0 153.5Q724 178 735 201Q737 239 737.0 285.5Q737 332 737 391Z"/><path transform="translate(388.61,0) scale(0.019531,-0.019531)" d="M154 633Q154 718 151.5 781.5Q149 845 145.5 891.0Q142 937 136.5 968.0Q131 999 125 1020V1024H356V1020Q348 997 342.5 964.0Q337 931 334 879Q371 910 411.0 940.0Q451 970 493.0 993.0Q535 1016 578.5 1030.0Q622 1044 666 1044Q693 1044 713.0 1041.5Q733 1039 749.0 1034.5Q765 1030 778.0 1024.5Q791 1019 803 1014L754 823L737 827Q725 871 692.0 897.5Q659 924 602 924Q571 924 537.0 913.0Q503 902 468.0 882.5Q433 863 398.0 837.5Q363 812 330 784Q328 755 328.0 721.0Q328 687 328 649V391Q328 306 330.0 242.5Q332 179 336.0 133.0Q340 87 345.0 56.0Q350 25 356 4V0H125V4Q131 25 136.5 56.0Q142 87 145.5 133.0Q149 179 151.5 242.5Q154 306 154 391Z"/><path transform="translate(404.30,0) scale(0.019531,-0.019531)" d="M102 88Q102 110 110.5 129.5Q119 149 133.5 163.5Q148 178 167.5 186.5Q187 195 209 195Q232 195 251.5 185.5Q271 176 285.5 159.5Q300 143 308.5 121.0Q317 99 317 74Q317 35 299.5 -11.0Q282 -57 253.5 -105.0Q225 -153 189.5 -199.5Q154 -246 117 -287L90 -264Q140 -205 170.0 -147.0Q200 -89 205 -20Q161 -18 131.5 12.0Q102 42 102 88Z"/><path transform="translate(424.49,0) scale(0.019531,-0.019531)" d="M154 653Q154 738 151.5 801.5Q149 865 145.5 911.0Q142 957 136.5 988.0Q131 1019 125 1040V1044H356V1040Q351 1025 347.0 1006.0Q343 987 340 963Q399 997 470.5 1020.5Q542 1044 629 1044Q740 1044 831.5 1006.5Q923 969 988.5 899.0Q1054 829 1090.0 730.0Q1126 631 1126 508Q1126 405 1090.5 310.0Q1055 215 986.5 142.0Q918 69 818.0 25.5Q718 -18 588 -18Q510 -18 446.0 -6.0Q382 6 328 25V-121Q328 -206 330.0 -269.5Q332 -333 336.0 -379.0Q340 -425 345.0 -456.0Q350 -487 356 -508V-512H125V-508Q131 -487 136.5 -456.0Q142 -425 145.5 -379.0Q149 -333 151.5 -269.5Q154 -206 154 -121ZM594 969Q560 969 524.5 960.5Q489 952 454.5 936.5Q420 921 388.5 897.5Q357 874 332 844Q330 806 329.0 758.0Q328 710 328 653V129Q348 114 373.0 101.0Q398 88 429.5 77.5Q461 67 500.5 61.0Q540 55 588 55Q666 55 729.0 83.0Q792 111 835.5 164.0Q879 217 902.5 293.0Q926 369 926 465Q926 573 908.0 665.5Q890 758 850.5 825.5Q811 893 748.0 931.0Q685 969 594 969Z"/><path transform="translate(447.85,0) scale(0.019531,-0.019531)" d="M602 -18Q491 -18 394.0 17.0Q297 52 225.0 119.5Q153 187 111.5 286.5Q70 386 70 514Q70 627 108.0 723.5Q146 820 213.0 891.0Q280 962 369.5 1002.0Q459 1042 563 1042Q666 1042 754.0 1006.5Q842 971 906.5 903.5Q971 836 1008.5 736.5Q1046 637 1049 510Q936 512 823.0 513.0Q710 514 588 514Q501 514 418.5 513.0Q336 512 270 510Q276 406 302.5 322.0Q329 238 375.5 178.5Q422 119 488.5 87.0Q555 55 639 55Q697 55 748.5 68.5Q800 82 842.0 106.0Q884 130 917.0 162.5Q950 195 973 233L985 227L911 49Q857 21 782.0 1.5Q707 -18 602 -18ZM469 592Q569 592 669.5 592.5Q770 593 852 596Q843 683 818.0 752.0Q793 821 754.0 869.0Q715 917 662.0 943.0Q609 969 545 969Q487 969 438.5 943.5Q390 918 354.0 870.0Q318 822 296.0 752.5Q274 683 270 594Q315 592 365.0 592.0Q415 592 469 592Z"/><path transform="translate(469.53,0) scale(0.019531,-0.019531)" d="M154 633Q154 718 151.5 781.5Q149 845 145.5 891.0Q142 937 136.5 968.0Q131 999 125 1020V1024H356V1020Q348 997 342.5 964.0Q337 931 334 879Q371 910 411.0 940.0Q451 970 493.0 993.0Q535 1016 578.5 1030.0Q622 1044 666 1044Q693 1044 713.0 1041.5Q733 1039 749.0 1034.5Q765 1030 778.0 1024.5Q791 1019 803 1014L754 823L737 827Q725 871 692.0 897.5Q659 924 602 924Q571 924 537.0 913.0Q503 902 468.0 882.5Q433 863 398.0 837.5Q363 812 330 784Q328 755 328.0 721.0Q328 687 328 649V391Q328 306 330.0 242.5Q332 179 336.0 133.0Q340 87 345.0 56.0Q350 25 356 4V0H125V4Q131 25 136.5 56.0Q142 87 145.5 133.0Q149 179 151.5 242.5Q154 306 154 391Z"/><path transform="translate(485.21,0) scale(0.019531,-0.019531)" d="M606 823 592 821Q585 844 569.5 870.0Q554 896 529.5 918.0Q505 940 470.5 954.5Q436 969 391 969Q360 969 332.5 960.0Q305 951 284.5 933.5Q264 916 252.0 890.0Q240 864 240 829Q240 780 270.5 735.5Q301 691 347.0 647.5Q393 604 446.5 560.0Q500 516 546.0 468.0Q592 420 622.5 365.5Q653 311 653 248Q653 197 635.0 148.5Q617 100 579.5 62.0Q542 24 483.5 0.5Q425 -23 344 -23Q296 -23 254.5 -14.0Q213 -5 178.5 8.5Q144 22 116.5 38.5Q89 55 68 70L78 260H94Q104 213 124.0 174.0Q144 135 173.5 107.5Q203 80 241.0 64.5Q279 49 324 49Q398 49 441.5 90.0Q485 131 485 197Q485 250 455.5 294.5Q426 339 381.0 380.0Q336 421 284.5 462.0Q233 503 188.0 549.5Q143 596 113.5 651.5Q84 707 84 778Q84 836 105.5 884.5Q127 933 165.5 967.5Q204 1002 257.0 1021.0Q310 1040 373 1040Q456 1040 511.5 1022.5Q567 1005 596 989Z"/><path transform="translate(499.38,0) scale(0.019531,-0.019531)" d="M70 514Q70 627 112.0 723.5Q154 820 227.5 891.0Q301 962 401.0 1002.0Q501 1042 616 1042Q729 1042 828.5 1004.5Q928 967 1002.0 898.0Q1076 829 1118.5 730.0Q1161 631 1161 508Q1161 405 1125.0 310.0Q1089 215 1019.0 142.0Q949 69 847.5 25.5Q746 -18 614 -18Q502 -18 403.0 19.0Q304 56 230.0 125.0Q156 194 113.0 292.5Q70 391 70 514ZM637 55Q708 55 767.5 83.0Q827 111 870.0 164.0Q913 217 937.0 293.0Q961 369 961 465Q961 573 938.0 665.5Q915 758 869.5 825.5Q824 893 755.0 931.0Q686 969 594 969Q523 969 464.0 941.5Q405 914 361.5 862.0Q318 810 294.0 734.5Q270 659 270 563Q270 455 293.5 362.0Q317 269 363.0 200.5Q409 132 477.5 93.5Q546 55 637 55Z"/><path transform="translate(523.42,0) scale(0.019531,-0.019531)" d="M842 674Q842 806 789.0 868.0Q736 930 647 930Q615 930 575.0 916.5Q535 903 493.0 880.5Q451 858 409.0 828.0Q367 798 330 764L328 633V391Q328 306 330.0 242.5Q332 179 336.0 133.0Q340 87 345.0 56.0Q350 25 356 4V0H125V4Q131 25 136.5 56.0Q142 87 145.5 133.0Q149 179 151.5 242.5Q154 306 154 391V633Q154 718 151.5 781.5Q149 845 145.5 891.0Q142 937 136.5 968.0Q131 999 125 1020V1024H356V1020Q348 995 343.5 956.5Q339 918 334 856Q375 890 422.5 924.0Q470 958 521.0 984.5Q572 1011 625.0 1027.5Q678 1044 729 1044Q807 1044 861.5 1017.0Q916 990 950.5 946.0Q985 902 1000.5 845.5Q1016 789 1016 731V391Q1016 306 1018.0 242.5Q1020 179 1024.0 133.0Q1028 87 1033.0 56.0Q1038 25 1044 4V0H813V4Q819 25 824.5 56.0Q830 87 833.5 133.0Q837 179 839.5 242.5Q842 306 842 391Z"/><path transform="translate(546.13,0) scale(0.019531,-0.019531)" d="M74 295Q74 374 106.5 432.0Q139 490 193.0 531.0Q247 572 316.0 597.5Q385 623 459.0 637.5Q533 652 605.0 657.5Q677 663 737 664V715Q737 781 720.0 829.0Q703 877 672.0 908.5Q641 940 597.5 955.5Q554 971 502 971Q466 971 431.0 965.0Q396 959 358.5 945.0Q321 931 279.5 907.0Q238 883 190 846L180 852L248 993Q281 1008 313.0 1017.5Q345 1027 378.0 1033.0Q411 1039 445.5 1041.5Q480 1044 518 1044Q623 1044 697.5 1018.5Q772 993 819.5 948.5Q867 904 889.0 844.5Q911 785 911 717V391Q911 306 913.5 242.5Q916 179 919.5 133.0Q923 87 928.5 56.0Q934 25 940 4V0H719V4Q724 20 726.5 40.0Q729 60 731 88Q710 70 681.5 51.0Q653 32 616.5 16.5Q580 1 535.5 -8.5Q491 -18 438 -18Q264 -18 169.0 63.5Q74 145 74 295ZM737 586Q646 585 562.0 575.5Q478 566 413.5 536.0Q349 506 310.5 450.5Q272 395 272 303Q272 185 331.0 123.0Q390 61 494 61Q542 61 581.5 74.5Q621 88 651.5 108.5Q682 129 703.0 153.5Q724 178 735 201Q737 239 737.0 285.5Q737 332 737 391Z"/><path transform="translate(566.82,0) scale(0.019531,-0.019531)" d="M160 1104Q160 1189 157.5 1252.5Q155 1316 151.5 1362.0Q148 1408 142.5 1439.0Q137 1470 131 1491V1495H362V1491Q356 1470 351.0 1439.0Q346 1408 342.0 1362.0Q338 1316 336.0 1252.5Q334 1189 334 1104V391Q334 306 336.0 242.5Q338 179 342.0 133.0Q346 87 351.0 56.0Q356 25 362 4V0H131V4Q137 25 142.5 56.0Q148 87 151.5 133.0Q155 179 157.5 242.5Q160 306 160 391Z"/><path transform="translate(576.46,0) scale(0.019531,-0.019531)" d="M160 633Q160 718 157.5 781.5Q155 845 151.5 891.0Q148 937 142.5 968.0Q137 999 131 1020V1024H362V1020Q356 999 351.0 968.0Q346 937 342.0 891.0Q338 845 336.0 781.5Q334 718 334 633V391Q334 306 336.0 242.5Q338 179 342.0 133.0Q346 87 351.0 56.0Q356 25 362 4V0H131V4Q137 25 142.5 56.0Q148 87 151.5 133.0Q155 179 157.5 242.5Q160 306 160 391ZM139 1327Q139 1349 147.5 1368.5Q156 1388 170.0 1402.5Q184 1417 203.5 1425.5Q223 1434 246 1434Q269 1434 288.5 1425.5Q308 1417 322.5 1402.5Q337 1388 345.5 1368.5Q354 1349 354 1327Q354 1281 323.0 1250.0Q292 1219 246 1219Q223 1219 203.5 1227.5Q184 1236 170.0 1250.5Q156 1265 147.5 1284.5Q139 1304 139 1327Z"/><path transform="translate(586.11,0) scale(0.019531,-0.019531)" d="M256 78H553Q631 78 697.0 86.5Q763 95 811 106Q867 118 913 135L868 -8Q856 -7 826.5 -5.5Q797 -4 764.5 -2.5Q732 -1 703.0 -0.5Q674 0 664 0H16V25L662 946H453Q370 946 300.5 937.0Q231 928 180 917Q120 905 72 889L137 1032Q149 1030 178.5 1029.0Q208 1028 241.0 1026.5Q274 1025 302.5 1024.5Q331 1024 342 1024H905V1006Z"/><path transform="translate(604.75,0) scale(0.019531,-0.019531)" d="M602 -18Q491 -18 394.0 17.0Q297 52 225.0 119.5Q153 187 111.5 286.5Q70 386 70 514Q70 627 108.0 723.5Q146 820 213.0 891.0Q280 962 369.5 1002.0Q459 1042 563 1042Q666 1042 754.0 1006.5Q842 971 906.5 903.5Q971 836 1008.5 736.5Q1046 637 1049 510Q936 512 823.0 513.0Q710 514 588 514Q501 514 418.5 513.0Q336 512 270 510Q276 406 302.5 322.0Q329 238 375.5 178.5Q422 119 488.5 87.0Q555 55 639 55Q697 55 748.5 68.5Q800 82 842.0 106.0Q884 130 917.0 162.5Q950 195 973 233L985 227L911 49Q857 21 782.0 1.5Q707 -18 602 -18ZM469 592Q569 592 669.5 592.5Q770 593 852 596Q843 683 818.0 752.0Q793 821 754.0 869.0Q715 917 662.0 943.0Q609 969 545 969Q487 969 438.5 943.5Q390 918 354.0 870.0Q318 822 296.0 752.5Q274 683 270 594Q315 592 365.0 592.0Q415 592 469 592Z"/><path transform="translate(626.43,0) scale(0.019531,-0.019531)" d="M610 1042Q651 1042 692.0 1035.0Q733 1028 772.0 1015.0Q811 1002 846.0 983.0Q881 964 909 940V1104Q909 1189 907.0 1252.5Q905 1316 901.0 1362.0Q897 1408 892.0 1439.0Q887 1470 881 1491V1495H1112V1491Q1106 1470 1100.5 1439.0Q1095 1408 1091.5 1362.0Q1088 1316 1085.5 1252.5Q1083 1189 1083 1104V391Q1083 306 1085.5 242.5Q1088 179 1091.5 133.0Q1095 87 1100.5 56.0Q1106 25 1112 4V0H891V4Q894 12 896.0 27.5Q898 43 901 66Q850 34 773.0 8.0Q696 -18 594 -18Q475 -18 378.0 19.0Q281 56 212.5 125.0Q144 194 107.0 292.5Q70 391 70 514Q70 627 110.0 723.5Q150 820 222.0 891.0Q294 962 393.0 1002.0Q492 1042 610 1042ZM909 764Q869 869 794.5 919.0Q720 969 627 969Q549 969 483.0 941.5Q417 914 370.0 862.0Q323 810 296.5 734.5Q270 659 270 563Q270 455 294.0 362.0Q318 269 364.5 200.5Q411 132 480.0 93.5Q549 55 639 55Q686 55 727.0 66.0Q768 77 802.0 94.0Q836 111 862.0 131.5Q888 152 905 172Q907 215 908.0 270.0Q909 325 909 391Z"/><path transform="translate(662.58,0) scale(0.019531,-0.019531)" d="M524 1432Q499 1432 470.5 1423.0Q442 1414 418.0 1390.0Q394 1366 378.0 1323.5Q362 1281 362 1214V1024Q415 1025 461.5 1027.0Q508 1029 545.0 1031.0Q582 1033 607.0 1035.5Q632 1038 643 1040L625 938Q590 939 549 941Q514 943 466.0 944.0Q418 945 362 946V391Q362 306 364.5 242.5Q367 179 370.5 133.0Q374 87 379.5 56.0Q385 25 391 4V0H160V4Q166 25 171.0 56.0Q176 87 180.0 133.0Q184 179 186.0 242.5Q188 306 188 391V946L20 940V1028Q51 1026 94.0 1025.0Q137 1024 188 1024V1192Q188 1269 210.5 1328.5Q233 1388 273.0 1428.5Q313 1469 369.0 1490.0Q425 1511 492 1511Q529 1511 561.0 1506.0Q593 1501 618.5 1494.0Q644 1487 663.5 1479.5Q683 1472 696 1466L735 1294L723 1288Q707 1312 688.0 1337.5Q669 1363 645.0 1384.0Q621 1405 591.5 1418.5Q562 1432 524 1432Z"/><path transform="translate(675.37,0) scale(0.019531,-0.019531)" d="M70 514Q70 627 112.0 723.5Q154 820 227.5 891.0Q301 962 401.0 1002.0Q501 1042 616 1042Q729 1042 828.5 1004.5Q928 967 1002.0 898.0Q1076 829 1118.5 730.0Q1161 631 1161 508Q1161 405 1125.0 310.0Q1089 215 1019.0 142.0Q949 69 847.5 25.5Q746 -18 614 -18Q502 -18 403.0 19.0Q304 56 230.0 125.0Q156 194 113.0 292.5Q70 391 70 514ZM637 55Q708 55 767.5 83.0Q827 111 870.0 164.0Q913 217 937.0 293.0Q961 369 961 465Q961 573 938.0 665.5Q915 758 869.5 825.5Q824 893 755.0 931.0Q686 969 594 969Q523 969 464.0 941.5Q405 914 361.5 862.0Q318 810 294.0 734.5Q270 659 270 563Q270 455 293.5 362.0Q317 269 363.0 200.5Q409 132 477.5 93.5Q546 55 637 55Z"/><path transform="translate(699.41,0) scale(0.019531,-0.019531)" d="M154 633Q154 718 151.5 781.5Q149 845 145.5 891.0Q142 937 136.5 968.0Q131 999 125 1020V1024H356V1020Q348 997 342.5 964.0Q337 931 334 879Q371 910 411.0 940.0Q451 970 493.0 993.0Q535 1016 578.5 1030.0Q622 1044 666 1044Q693 1044 713.0 1041.5Q733 1039 749.0 1034.5Q765 1030 778.0 1024.5Q791 1019 803 1014L754 823L737 827Q725 871 692.0 897.5Q659 924 602 924Q571 924 537.0 913.0Q503 902 468.0 882.5Q433 863 398.0 837.5Q363 812 330 784Q328 755 328.0 721.0Q328 687 328 649V391Q328 306 330.0 242.5Q332 179 336.0 133.0Q340 87 345.0 56.0Q350 25 356 4V0H125V4Q131 25 136.5 56.0Q142 87 145.5 133.0Q149 179 151.5 242.5Q154 306 154 391Z"/><path transform="translate(727.09,0) scale(0.019531,-0.019531)" d="M475 12 123 782Q104 826 82.0 866.5Q60 907 40.5 939.0Q21 971 6.0 992.5Q-9 1014 -14 1020V1024H248V1020Q246 1015 245.0 1005.0Q244 995 244 987Q244 956 253.5 918.5Q263 881 289 825L565 225L817 817Q833 854 849.5 898.0Q866 942 866 987Q866 1000 864.0 1008.5Q862 1017 860 1020V1024H1040V1020Q1022 1001 994.5 952.5Q967 904 936 831L459 -305Q443 -342 426.5 -386.0Q410 -430 410 -475Q410 -488 412.0 -496.5Q414 -505 416 -508V-512H229V-508Q248 -489 275.5 -441.5Q303 -394 334 -322Z"/><path transform="translate(747.13,0) scale(0.019531,-0.019531)" d="M70 514Q70 627 112.0 723.5Q154 820 227.5 891.0Q301 962 401.0 1002.0Q501 1042 616 1042Q729 1042 828.5 1004.5Q928 967 1002.0 898.0Q1076 829 1118.5 730.0Q1161 631 1161 508Q1161 405 1125.0 310.0Q1089 215 1019.0 142.0Q949 69 847.5 25.5Q746 -18 614 -18Q502 -18 403.0 19.0Q304 56 230.0 125.0Q156 194 113.0 292.5Q70 391 70 514ZM637 55Q708 55 767.5 83.0Q827 111 870.0 164.0Q913 217 937.0 293.0Q961 369 961 465Q961 573 938.0 665.5Q915 758 869.5 825.5Q824 893 755.0 931.0Q686 969 594 969Q523 969 464.0 941.5Q405 914 361.5 862.0Q318 810 294.0 734.5Q270 659 270 563Q270 455 293.5 362.0Q317 269 363.0 200.5Q409 132 477.5 93.5Q546 55 637 55Z"/><path transform="translate(771.17,0) scale(0.019531,-0.019531)" d="M322 350Q322 218 374.5 156.0Q427 94 516 94Q548 94 588.0 107.5Q628 121 670.5 143.5Q713 166 755.5 196.0Q798 226 834 260Q836 289 836.0 321.5Q836 354 836 391V633Q836 718 833.5 781.5Q831 845 827.5 891.0Q824 937 818.5 968.0Q813 999 807 1020V1024H1038V1020Q1032 999 1027.0 968.0Q1022 937 1018.0 891.0Q1014 845 1012.0 781.5Q1010 718 1010 633V391Q1010 306 1012.0 242.5Q1014 179 1018.0 133.0Q1022 87 1027.0 56.0Q1032 25 1038 4V0H807V4Q813 29 819.5 68.0Q826 107 829 170Q788 135 740.5 101.0Q693 67 641.5 40.0Q590 13 537.5 -3.5Q485 -20 434 -20Q356 -20 301.5 7.0Q247 34 212.5 78.0Q178 122 162.5 178.0Q147 234 147 293V633Q147 718 145.0 781.5Q143 845 139.0 891.0Q135 937 130.0 968.0Q125 999 119 1020V1024H350V1020Q344 999 339.0 968.0Q334 937 330.0 891.0Q326 845 324.0 781.5Q322 718 322 633Z"/><path transform="translate(793.89,0) scale(0.019531,-0.019531)" d="M154 633Q154 718 151.5 781.5Q149 845 145.5 891.0Q142 937 136.5 968.0Q131 999 125 1020V1024H356V1020Q348 997 342.5 964.0Q337 931 334 879Q371 910 411.0 940.0Q451 970 493.0 993.0Q535 1016 578.5 1030.0Q622 1044 666 1044Q693 1044 713.0 1041.5Q733 1039 749.0 1034.5Q765 1030 778.0 1024.5Q791 1019 803 1014L754 823L737 827Q725 871 692.0 897.5Q659 924 602 924Q571 924 537.0 913.0Q503 902 468.0 882.5Q433 863 398.0 837.5Q363 812 330 784Q328 755 328.0 721.0Q328 687 328 649V391Q328 306 330.0 242.5Q332 179 336.0 133.0Q340 87 345.0 56.0Q350 25 356 4V0H125V4Q131 25 136.5 56.0Q142 87 145.5 133.0Q149 179 151.5 242.5Q154 306 154 391Z"/><path transform="translate(821.56,0) scale(0.019531,-0.019531)" d="M154 653Q154 738 151.5 801.5Q149 865 145.5 911.0Q142 957 136.5 988.0Q131 1019 125 1040V1044H356V1040Q351 1025 347.0 1006.0Q343 987 340 963Q399 997 470.5 1020.5Q542 1044 629 1044Q740 1044 831.5 1006.5Q923 969 988.5 899.0Q1054 829 1090.0 730.0Q1126 631 1126 508Q1126 405 1090.5 310.0Q1055 215 986.5 142.0Q918 69 818.0 25.5Q718 -18 588 -18Q510 -18 446.0 -6.0Q382 6 328 25V-121Q328 -206 330.0 -269.5Q332 -333 336.0 -379.0Q340 -425 345.0 -456.0Q350 -487 356 -508V-512H125V-508Q131 -487 136.5 -456.0Q142 -425 145.5 -379.0Q149 -333 151.5 -269.5Q154 -206 154 -121ZM594 969Q560 969 524.5 960.5Q489 952 454.5 936.5Q420 921 388.5 897.5Q357 874 332 844Q330 806 329.0 758.0Q328 710 328 653V129Q348 114 373.0 101.0Q398 88 429.5 77.5Q461 67 500.5 61.0Q540 55 588 55Q666 55 729.0 83.0Q792 111 835.5 164.0Q879 217 902.5 293.0Q926 369 926 465Q926 573 908.0 665.5Q890 758 850.5 825.5Q811 893 748.0 931.0Q685 969 594 969Z"/><path transform="translate(844.92,0) scale(0.019531,-0.019531)" d="M74 295Q74 374 106.5 432.0Q139 490 193.0 531.0Q247 572 316.0 597.5Q385 623 459.0 637.5Q533 652 605.0 657.5Q677 663 737 664V715Q737 781 720.0 829.0Q703 877 672.0 908.5Q641 940 597.5 955.5Q554 971 502 971Q466 971 431.0 965.0Q396 959 358.5 945.0Q321 931 279.5 907.0Q238 883 190 846L180 852L248 993Q281 1008 313.0 1017.5Q345 1027 378.0 1033.0Q411 1039 445.5 1041.5Q480 1044 518 1044Q623 1044 697.5 1018.5Q772 993 819.5 948.5Q867 904 889.0 844.5Q911 785 911 717V391Q911 306 913.5 242.5Q916 179 919.5 133.0Q923 87 928.5 56.0Q934 25 940 4V0H719V4Q724 20 726.5 40.0Q729 60 731 88Q710 70 681.5 51.0Q653 32 616.5 16.5Q580 1 535.5 -8.5Q491 -18 438 -18Q264 -18 169.0 63.5Q74 145 74 295ZM737 586Q646 585 562.0 575.5Q478 566 413.5 536.0Q349 506 310.5 450.5Q272 395 272 303Q272 185 331.0 123.0Q390 61 494 61Q542 61 581.5 74.5Q621 88 651.5 108.5Q682 129 703.0 153.5Q724 178 735 201Q737 239 737.0 285.5Q737 332 737 391Z"/><path transform="translate(865.61,0) scale(0.019531,-0.019531)" d="M154 633Q154 718 151.5 781.5Q149 845 145.5 891.0Q142 937 136.5 968.0Q131 999 125 1020V1024H356V1020Q348 997 342.5 964.0Q337 931 334 879Q371 910 411.0 940.0Q451 970 493.0 993.0Q535 1016 578.5 1030.0Q622 1044 666 1044Q693 1044 713.0 1041.5Q733 1039 749.0 1034.5Q765 1030 778.0 1024.5Q791 1019 803 1014L754 823L737 827Q725 871 692.0 897.5Q659 924 602 924Q571 924 537.0 913.0Q503 902 468.0 882.5Q433 863 398.0 837.5Q363 812 330 784Q328 755 328.0 721.0Q328 687 328 649V391Q328 306 330.0 242.5Q332 179 336.0 133.0Q340 87 345.0 56.0Q350 25 356 4V0H125V4Q131 25 136.5 56.0Q142 87 145.5 133.0Q149 179 151.5 242.5Q154 306 154 391Z"/><path transform="translate(881.29,0) scale(0.019531,-0.019531)" d="M160 633Q160 718 157.5 781.5Q155 845 151.5 891.0Q148 937 142.5 968.0Q137 999 131 1020V1024H362V1020Q356 999 351.0 968.0Q346 937 342.0 891.0Q338 845 336.0 781.5Q334 718 334 633V391Q334 306 336.0 242.5Q338 179 342.0 133.0Q346 87 351.0 56.0Q356 25 362 4V0H131V4Q137 25 142.5 56.0Q148 87 151.5 133.0Q155 179 157.5 242.5Q160 306 160 391ZM139 1327Q139 1349 147.5 1368.5Q156 1388 170.0 1402.5Q184 1417 203.5 1425.5Q223 1434 246 1434Q269 1434 288.5 1425.5Q308 1417 322.5 1402.5Q337 1388 345.5 1368.5Q354 1349 354 1327Q354 1281 323.0 1250.0Q292 1219 246 1219Q223 1219 203.5 1227.5Q184 1236 170.0 1250.5Q156 1265 147.5 1284.5Q139 1304 139 1327Z"/><path transform="translate(890.94,0) scale(0.019531,-0.019531)" d="M606 823 592 821Q585 844 569.5 870.0Q554 896 529.5 918.0Q505 940 470.5 954.5Q436 969 391 969Q360 969 332.5 960.0Q305 951 284.5 933.5Q264 916 252.0 890.0Q240 864 240 829Q240 780 270.5 735.5Q301 691 347.0 647.5Q393 604 446.5 560.0Q500 516 546.0 468.0Q592 420 622.5 365.5Q653 311 653 248Q653 197 635.0 148.5Q617 100 579.5 62.0Q542 24 483.5 0.5Q425 -23 344 -23Q296 -23 254.5 -14.0Q213 -5 178.5 8.5Q144 22 116.5 38.5Q89 55 68 70L78 260H94Q104 213 124.0 174.0Q144 135 173.5 107.5Q203 80 241.0 64.5Q279 49 324 49Q398 49 441.5 90.0Q485 131 485 197Q485 250 455.5 294.5Q426 339 381.0 380.0Q336 421 284.5 462.0Q233 503 188.0 549.5Q143 596 113.5 651.5Q84 707 84 778Q84 836 105.5 884.5Q127 933 165.5 967.5Q204 1002 257.0 1021.0Q310 1040 373 1040Q456 1040 511.5 1022.5Q567 1005 596 989Z"/><path transform="translate(905.10,0) scale(0.019531,-0.019531)" d="M842 674Q842 806 789.0 868.0Q736 930 647 930Q614 930 573.5 916.5Q533 903 490.5 880.0Q448 857 406.0 826.5Q364 796 328 762V391Q328 306 330.0 242.5Q332 179 336.0 133.0Q340 87 345.0 56.0Q350 25 356 4V0H125V4Q131 25 136.5 56.0Q142 87 145.5 133.0Q149 179 151.5 242.5Q154 306 154 391V1104Q154 1189 151.5 1252.5Q149 1316 145.5 1362.0Q142 1408 136.5 1439.0Q131 1470 125 1491V1495H356V1491Q350 1470 345.0 1439.0Q340 1408 336.0 1362.0Q332 1316 330.0 1252.5Q328 1189 328 1104V848Q368 884 416.5 919.0Q465 954 517.0 982.0Q569 1010 623.0 1027.0Q677 1044 729 1044Q807 1044 861.5 1017.0Q916 990 950.5 946.0Q985 902 1000.5 845.5Q1016 789 1016 731V391Q1016 306 1018.0 242.5Q1020 179 1024.0 133.0Q1028 87 1033.0 56.0Q1038 25 1044 4V0H813V4Q819 25 824.5 56.0Q830 87 833.5 133.0Q837 179 839.5 242.5Q842 306 842 391Z"/><path transform="translate(927.81,0) scale(0.019531,-0.019531)" d="M102 88Q102 110 110.5 129.5Q119 149 133.5 163.5Q148 178 167.5 186.5Q187 195 209 195Q232 195 251.5 186.5Q271 178 285.5 163.5Q300 149 308.5 129.5Q317 110 317 88Q317 42 286.0 11.0Q255 -20 209 -20Q187 -20 167.5 -11.5Q148 -3 133.5 11.5Q119 26 110.5 45.5Q102 65 102 88Z"/></g></svg>