<svg xmlns="http://www.w3.org/2000/svg" viewBox="0 0 968 261" width="968" height="261"><g fill="#22211D" opacity="0.55" transform="translate(40,216.84783203125)"><path transform="translate(0.00,0) scale(0.097656,-0.097656)" d="M821 674Q821 740 807.5 788.0Q794 836 768.5 867.5Q743 899 707.0 914.5Q671 930 627 930Q597 930 560.0 918.0Q523 906 483.5 885.5Q444 865 404.5 838.0Q365 811 330 780Q328 748 328.0 711.5Q328 675 328 633V391Q328 306 330.0 242.5Q332 179 336.0 133.0Q340 87 345.0 56.0Q350 25 356 4V0H125V4Q131 25 136.5 56.0Q142 87 145.5 133.0Q149 179 151.5 242.5Q154 306 154 391V633Q154 718 151.5 781.5Q149 845 145.5 891.0Q142 937 136.5 968.0Q131 999 125 1020V1024H356V1020Q348 997 343.5 961.5Q339 926 334 872Q374 904 420.0 935.0Q466 966 514.5 990.0Q563 1014 612.0 1029.0Q661 1044 709 1044Q766 1044 810.0 1029.0Q854 1014 887.0 988.0Q920 962 942.5 927.0Q965 892 977 852Q1018 887 1066.5 921.5Q1115 956 1166.5 983.0Q1218 1010 1271.5 1027.0Q1325 1044 1376 1044Q1454 1044 1508.5 1017.0Q1563 990 1597.5 946.0Q1632 902 1647.5 845.5Q1663 789 1663 731V391Q1663 306 1665.0 242.5Q1667 179 1671.0 133.0Q1675 87 1680.5 56.0Q1686 25 1692 4V0H1460V4Q1466 25 1471.5 56.0Q1477 87 1481.0 133.0Q1485 179 1487.0 242.5Q1489 306 1489 391V674Q1489 806 1436.0 868.0Q1383 930 1294 930Q1263 930 1225.5 918.0Q1188 906 1148.0 885.0Q1108 864 1068.0 836.5Q1028 809 993 778Q995 766 995.0 754.0Q995 742 995 731V391Q995 306 997.5 242.5Q1000 179 1003.5 133.0Q1007 87 1012.5 56.0Q1018 25 1024 4V0H793V4Q799 25 804.0 56.0Q809 87 813.0 133.0Q817 179 819.0 242.5Q821 306 821 391Z"/><path transform="translate(176.76,0) scale(0.097656,-0.097656)" d="M475 12 123 782Q104 826 82.0 866.5Q60 907 40.5 939.0Q21 971 6.0 992.5Q-9 1014 -14 1020V1024H248V1020Q246 1015 245.0 1005.0Q244 995 244 987Q244 956 253.5 918.5Q263 881 289 825L565 225L817 817Q833 854 849.5 898.0Q866 942 866 987Q866 1000 864.0 1008.5Q862 1017 860 1020V1024H1040V1020Q1022 1001 994.5 952.5Q967 904 936 831L459 -305Q443 -342 426.5 -386.0Q410 -430 410 -475Q410 -488 412.0 -496.5Q414 -505 416 -508V-512H229V-508Q248 -489 275.5 -441.5Q303 -394 334 -322Z"/></g><g fill="#22211D" transform="translate(325.953125,216.84783203125)"><path transform="translate(0.00,0) scale(0.097656,-0.097656)" d="M797 1458Q964 1458 1105.5 1403.5Q1247 1349 1350.0 1250.5Q1453 1152 1511.0 1014.0Q1569 876 1569 709Q1569 614 1547.0 522.0Q1525 430 1482.5 348.0Q1440 266 1378.0 196.5Q1316 127 1236.5 76.5Q1157 26 1061.0 -2.5Q965 -31 854 -31Q687 -31 545.5 22.5Q404 76 301.0 174.0Q198 272 140.0 409.5Q82 547 82 715Q82 810 104.0 902.0Q126 994 168.5 1077.0Q211 1160 272.5 1229.5Q334 1299 413.5 1350.0Q493 1401 589.5 1429.5Q686 1458 797 1458ZM854 59Q965 59 1057.0 99.0Q1149 139 1215.5 215.0Q1282 291 1319.0 400.5Q1356 510 1356 649Q1356 803 1320.5 934.5Q1285 1066 1215.0 1162.5Q1145 1259 1040.5 1313.5Q936 1368 797 1368Q686 1368 594.0 1328.5Q502 1289 435.5 1214.0Q369 1139 332.0 1030.0Q295 921 295 782Q295 629 330.0 496.5Q365 364 435.0 267.0Q505 170 610.0 114.5Q715 59 854 59Z"/><path transform="translate(161.23,0) scale(0.097656,-0.097656)" d="M354 391Q354 306 356.5 242.5Q359 179 362.5 133.0Q366 87 371.5 56.0Q377 25 383 4V0H143V4Q149 25 154.5 56.0Q160 87 163.5 133.0Q167 179 169.5 242.0Q172 305 172 391V1042Q172 1127 169.5 1190.5Q167 1254 163.5 1300.0Q160 1346 154.5 1377.5Q149 1409 143 1430V1434L185 1430Q204 1428 227.5 1427.5Q251 1427 276 1427Q315 1427 381.5 1436.5Q448 1446 551 1446Q647 1446 728.5 1420.0Q810 1394 870.0 1344.0Q930 1294 963.5 1221.5Q997 1149 997 1057Q997 985 978.5 923.5Q960 862 926.5 812.0Q893 762 846.0 723.5Q799 685 741 659L1092 166Q1118 129 1140.5 102.0Q1163 75 1183.5 55.5Q1204 36 1223.0 23.5Q1242 11 1262 4V0H973Q970 19 953.5 50.5Q937 82 915 113L561 612Q538 610 515.0 608.5Q492 607 468 607Q440 607 411.5 609.0Q383 611 354 616ZM354 694Q381 688 409.0 685.5Q437 683 463 683Q538 683 600.0 705.5Q662 728 705.5 774.0Q749 820 773.0 888.5Q797 957 797 1049Q797 1124 780.0 1185.0Q763 1246 729.5 1288.5Q696 1331 645.0 1354.5Q594 1378 526 1378Q457 1378 416.0 1371.0Q375 1364 354 1356Z"/><path transform="translate(279.39,0) scale(0.097656,-0.097656)" d="M362 1348Q360 1236 358 1131Q357 1086 356.5 1039.0Q356 992 355.5 946.5Q355 901 354.5 859.5Q354 818 354 786Q354 719 355.0 624.0Q356 529 357.5 429.0Q359 329 362.0 237.0Q365 145 369 84Q383 82 406.5 79.5Q430 77 456.0 75.5Q482 74 507.0 73.0Q532 72 549 72Q619 72 692.5 81.5Q766 91 834.5 117.0Q903 143 963.5 188.5Q1024 234 1069.5 306.0Q1115 378 1141.0 479.5Q1167 581 1167 719Q1167 872 1130.0 991.5Q1093 1111 1021.5 1193.0Q950 1275 844.5 1317.5Q739 1360 602 1360Q575 1360 541.0 1358.5Q507 1357 473.5 1355.5Q440 1354 410.5 1351.5Q381 1349 362 1348ZM143 1438Q166 1437 186 1436Q203 1435 221.0 1434.5Q239 1434 250 1434Q269 1434 313.5 1436.0Q358 1438 415.0 1440.0Q472 1442 533.5 1444.0Q595 1446 649 1446Q794 1446 925.0 1410.0Q1056 1374 1155.0 1292.0Q1254 1210 1312.0 1077.0Q1370 944 1370 750Q1370 611 1339.5 500.0Q1309 389 1254.0 304.0Q1199 219 1122.5 158.5Q1046 98 953.5 59.0Q861 20 756.0 2.0Q651 -16 539 -16Q499 -16 442.5 -13.5Q386 -11 329.0 -8.0Q272 -5 221.5 -2.5Q171 0 143 0V4Q149 25 154.5 56.0Q160 87 164.0 133.0Q168 179 170.0 242.5Q172 306 172 391V1042Q172 1127 170.0 1191.5Q168 1256 164.0 1302.5Q160 1349 154.5 1381.0Q149 1413 143 1434Z"/></g><path d="M 867.404 78.129 A 68.343 68.343 0 0 1 892.582 90.915" fill="none" stroke="#615380" stroke-width="20.503" stroke-linecap="round"/><path d="M 896.191 94.035 A 68.343 68.343 0 0 1 907.515 107.674" fill="none" stroke="#C19F45" stroke-width="20.503" stroke-linecap="round"/><path d="M 909.918 111.795 A 68.343 68.343 0 0 1 916.175 160.075" fill="none" stroke="#376043" stroke-width="20.503" stroke-linecap="round"/><path d="M 914.902 164.672 A 68.343 68.343 0 0 1 887.704 200.955" fill="none" stroke="#615380" stroke-width="20.503" stroke-linecap="round"/><path d="M 883.648 203.466 A 68.343 68.343 0 0 1 828.683 209.169" fill="none" stroke="#C19F45" stroke-width="20.503" stroke-linecap="round"/><path d="M 824.199 207.543 A 68.343 68.343 0 0 1 832.027 78.129" fill="none" stroke="#376043" stroke-width="20.503" stroke-linecap="round"/><g stroke="#C19F45" stroke-width="15.992" stroke-linecap="round"><line x1="849.715" y1="54.614" x2="849.715" y2="96.986"/><line x1="836.580" y1="69.868" x2="862.851" y2="69.868"/></g></svg>